<mxfile host="app.diagrams.net" modified="2023-10-31T00:54:31.295Z" agent="Mozilla/5.0 (Windows NT 10.0; Win64; x64) AppleWebKit/537.36 (KHTML, like Gecko) Chrome/118.0.0.0 Safari/537.36" etag="eMhqcKE_PFcMGRvwXHFt" version="22.0.8" type="github" pages="3">
  <diagram name="Page-1" id="-1H16v23IKtOzZ5zfERo">
    <mxGraphModel dx="1884" dy="472" grid="1" gridSize="12" guides="1" tooltips="1" connect="1" arrows="1" fold="1" page="1" pageScale="1" pageWidth="850" pageHeight="1100" background="none" math="0" shadow="0">
      <root>
        <mxCell id="0" />
        <mxCell id="1" parent="0" />
        <mxCell id="Dt40_mIN8QH69Hemia8o-49" value="" style="verticalLabelPosition=bottom;shadow=0;dashed=0;align=center;html=1;verticalAlign=top;strokeWidth=1;shape=mxgraph.mockup.graphics.simpleIcon;strokeColor=#999999;" parent="1" vertex="1">
          <mxGeometry x="-830" y="190" width="830" height="900" as="geometry" />
        </mxCell>
        <mxCell id="Dt40_mIN8QH69Hemia8o-20" value="&lt;font style=&quot;font-size: 25px;&quot;&gt;&lt;b&gt;Home Page&lt;/b&gt;&lt;/font&gt;" style="text;html=1;strokeColor=none;fillColor=none;align=center;verticalAlign=middle;whiteSpace=wrap;rounded=0;" parent="1" vertex="1">
          <mxGeometry x="-520" y="40" width="190" height="30" as="geometry" />
        </mxCell>
        <mxCell id="Dt40_mIN8QH69Hemia8o-33" value="" style="strokeWidth=1;shadow=0;dashed=0;align=center;html=1;shape=mxgraph.mockup.containers.browserWindow;rSize=0;strokeColor=#666666;strokeColor2=#008cff;strokeColor3=#c4c4c4;mainText=,;recursiveResize=0;" parent="1" vertex="1">
          <mxGeometry x="-850" y="144" width="890" height="1020" as="geometry" />
        </mxCell>
        <mxCell id="Dt40_mIN8QH69Hemia8o-34" value="Home" style="strokeWidth=1;shadow=0;dashed=0;align=center;html=1;shape=mxgraph.mockup.containers.anchor;fontSize=17;fontColor=#666666;align=left;whiteSpace=wrap;" parent="Dt40_mIN8QH69Hemia8o-33" vertex="1">
          <mxGeometry x="60" y="12" width="110" height="26" as="geometry" />
        </mxCell>
        <mxCell id="Dt40_mIN8QH69Hemia8o-35" value="https://www.dollysdivinesucculents.com/home" style="strokeWidth=1;shadow=0;dashed=0;align=center;html=1;shape=mxgraph.mockup.containers.anchor;rSize=0;fontSize=17;fontColor=#666666;align=left;" parent="Dt40_mIN8QH69Hemia8o-33" vertex="1">
          <mxGeometry x="130" y="60" width="380" height="26" as="geometry" />
        </mxCell>
        <mxCell id="Dt40_mIN8QH69Hemia8o-41" value="" style="verticalLabelPosition=bottom;shadow=0;dashed=0;align=center;html=1;verticalAlign=top;strokeWidth=1;shape=mxgraph.mockup.graphics.simpleIcon;strokeColor=#999999;" parent="Dt40_mIN8QH69Hemia8o-33" vertex="1">
          <mxGeometry x="10" y="120" width="110" height="100" as="geometry" />
        </mxCell>
        <mxCell id="Dt40_mIN8QH69Hemia8o-43" value="&lt;font style=&quot;font-size: 18px;&quot;&gt;logo&lt;/font&gt;" style="text;html=1;strokeColor=none;fillColor=none;align=center;verticalAlign=middle;whiteSpace=wrap;rounded=0;" parent="Dt40_mIN8QH69Hemia8o-33" vertex="1">
          <mxGeometry x="35" y="155" width="60" height="30" as="geometry" />
        </mxCell>
        <mxCell id="Dt40_mIN8QH69Hemia8o-44" value="" style="ellipse;whiteSpace=wrap;html=1;aspect=fixed;" parent="Dt40_mIN8QH69Hemia8o-33" vertex="1">
          <mxGeometry x="369" y="200" width="112.5" height="112.5" as="geometry" />
        </mxCell>
        <mxCell id="Dt40_mIN8QH69Hemia8o-45" value="Photo&lt;br&gt;of &lt;br&gt;Dolly" style="text;html=1;strokeColor=none;fillColor=none;align=center;verticalAlign=middle;whiteSpace=wrap;rounded=0;" parent="Dt40_mIN8QH69Hemia8o-33" vertex="1">
          <mxGeometry x="395.25" y="241.25" width="60" height="30" as="geometry" />
        </mxCell>
        <mxCell id="Dt40_mIN8QH69Hemia8o-46" value="" style="rounded=0;whiteSpace=wrap;html=1;" parent="Dt40_mIN8QH69Hemia8o-33" vertex="1">
          <mxGeometry x="40" y="330" width="810" height="160" as="geometry" />
        </mxCell>
        <mxCell id="Dt40_mIN8QH69Hemia8o-47" value="" style="rounded=0;whiteSpace=wrap;html=1;" parent="Dt40_mIN8QH69Hemia8o-33" vertex="1">
          <mxGeometry x="40" y="530" width="810" height="160" as="geometry" />
        </mxCell>
        <mxCell id="Dt40_mIN8QH69Hemia8o-50" value="Background Photo/color to cover page" style="text;html=1;strokeColor=none;fillColor=none;align=center;verticalAlign=middle;whiteSpace=wrap;rounded=0;" parent="Dt40_mIN8QH69Hemia8o-33" vertex="1">
          <mxGeometry x="62.5" y="241.25" width="75" height="59" as="geometry" />
        </mxCell>
        <mxCell id="Dt40_mIN8QH69Hemia8o-51" value="&lt;h1&gt;Dolly&#39;s Divine Succulents&lt;/h1&gt;" style="text;html=1;strokeColor=none;fillColor=none;spacing=5;spacingTop=-20;whiteSpace=wrap;overflow=hidden;rounded=0;" parent="Dt40_mIN8QH69Hemia8o-33" vertex="1">
          <mxGeometry x="265" y="160" width="300" height="40" as="geometry" />
        </mxCell>
        <mxCell id="CFEvG4N6sFEIjdFLaoKz-1" value="&lt;font style=&quot;font-size: 18px;&quot;&gt;About Us&lt;/font&gt;" style="text;html=1;strokeColor=none;fillColor=none;align=center;verticalAlign=middle;whiteSpace=wrap;rounded=0;" parent="Dt40_mIN8QH69Hemia8o-33" vertex="1">
          <mxGeometry x="383" y="380" width="85" height="30" as="geometry" />
        </mxCell>
        <mxCell id="CFEvG4N6sFEIjdFLaoKz-2" value="&lt;font style=&quot;font-size: 18px;&quot;&gt;Shop Now&lt;/font&gt;" style="text;html=1;strokeColor=none;fillColor=none;align=center;verticalAlign=middle;whiteSpace=wrap;rounded=0;" parent="Dt40_mIN8QH69Hemia8o-33" vertex="1">
          <mxGeometry x="375" y="560" width="95" height="30" as="geometry" />
        </mxCell>
        <mxCell id="CFEvG4N6sFEIjdFLaoKz-4" value="" style="strokeColor=#999999;verticalLabelPosition=bottom;shadow=0;dashed=0;verticalAlign=top;strokeWidth=2;html=1;shape=mxgraph.mockup.misc.copyrightIcon;" parent="Dt40_mIN8QH69Hemia8o-33" vertex="1">
          <mxGeometry x="383" y="990" width="17" height="15" as="geometry" />
        </mxCell>
        <mxCell id="CFEvG4N6sFEIjdFLaoKz-6" value="" style="dashed=0;outlineConnect=0;html=1;align=center;labelPosition=center;verticalLabelPosition=bottom;verticalAlign=top;shape=mxgraph.weblogos.pinterest;fillColor=#BD081C;strokeColor=none" parent="Dt40_mIN8QH69Hemia8o-33" vertex="1">
          <mxGeometry x="80" y="950" width="40" height="40" as="geometry" />
        </mxCell>
        <mxCell id="OU0bOg06ll2Q53pONdHf-1" value="" style="strokeWidth=1;shadow=0;dashed=0;align=center;html=1;shape=mxgraph.mockup.rrect;rSize=10;fillColor=#ffffff;strokeColor=#666666;" parent="Dt40_mIN8QH69Hemia8o-33" vertex="1">
          <mxGeometry x="480" y="120" width="340" height="30" as="geometry" />
        </mxCell>
        <mxCell id="OU0bOg06ll2Q53pONdHf-2" value="About Us" style="strokeColor=inherit;fillColor=inherit;gradientColor=inherit;strokeWidth=1;shadow=0;dashed=0;align=center;html=1;shape=mxgraph.mockup.rrect;rSize=0;fontSize=17;fontColor=#666666;fontStyle=1;resizeHeight=1;whiteSpace=wrap;" parent="OU0bOg06ll2Q53pONdHf-1" vertex="1">
          <mxGeometry width="90" height="30" relative="1" as="geometry">
            <mxPoint x="60" as="offset" />
          </mxGeometry>
        </mxCell>
        <mxCell id="OU0bOg06ll2Q53pONdHf-3" value="Contact Us" style="strokeColor=inherit;fillColor=inherit;gradientColor=inherit;strokeWidth=1;shadow=0;dashed=0;align=center;html=1;shape=mxgraph.mockup.rrect;rSize=0;fontSize=17;fontColor=#666666;fontStyle=1;resizeHeight=1;whiteSpace=wrap;" parent="OU0bOg06ll2Q53pONdHf-1" vertex="1">
          <mxGeometry width="100" height="30" relative="1" as="geometry">
            <mxPoint x="150" as="offset" />
          </mxGeometry>
        </mxCell>
        <mxCell id="OU0bOg06ll2Q53pONdHf-4" value="Connect" style="strokeColor=inherit;fillColor=inherit;gradientColor=inherit;strokeWidth=1;shadow=0;dashed=0;align=center;html=1;shape=mxgraph.mockup.rightButton;rSize=10;fontSize=17;fontColor=#666666;fontStyle=1;resizeHeight=1;whiteSpace=wrap;" parent="OU0bOg06ll2Q53pONdHf-1" vertex="1">
          <mxGeometry x="1" width="90" height="30" relative="1" as="geometry">
            <mxPoint x="-90" as="offset" />
          </mxGeometry>
        </mxCell>
        <mxCell id="OU0bOg06ll2Q53pONdHf-5" value="Home" style="strokeWidth=1;shadow=0;dashed=0;align=center;html=1;shape=mxgraph.mockup.leftButton;rSize=10;fontSize=17;fontColor=#ffffff;fontStyle=1;fillColor=#008cff;strokeColor=#008cff;resizeHeight=1;whiteSpace=wrap;" parent="OU0bOg06ll2Q53pONdHf-1" vertex="1">
          <mxGeometry width="60" height="30" relative="1" as="geometry" />
        </mxCell>
        <mxCell id="XHNXw9KM670AtYHm92KE-1" value="&lt;font style=&quot;font-size: 14px;&quot;&gt;Copyright&lt;/font&gt;" style="text;html=1;strokeColor=none;fillColor=none;align=center;verticalAlign=middle;whiteSpace=wrap;rounded=0;" parent="Dt40_mIN8QH69Hemia8o-33" vertex="1">
          <mxGeometry x="315" y="982.5" width="60" height="30" as="geometry" />
        </mxCell>
        <mxCell id="XHNXw9KM670AtYHm92KE-3" value="&lt;font style=&quot;font-size: 14px;&quot;&gt;2023 Dolly&#39;s Divine Succulents&lt;/font&gt;" style="text;html=1;strokeColor=none;fillColor=none;align=center;verticalAlign=middle;whiteSpace=wrap;rounded=0;" parent="Dt40_mIN8QH69Hemia8o-33" vertex="1">
          <mxGeometry x="400" y="982.5" width="210" height="30" as="geometry" />
        </mxCell>
        <mxCell id="XHNXw9KM670AtYHm92KE-4" value="" style="dashed=0;outlineConnect=0;html=1;align=center;labelPosition=center;verticalLabelPosition=bottom;verticalAlign=top;shape=mxgraph.webicons.facebook;fillColor=#6294E4;gradientColor=#1A2665" parent="Dt40_mIN8QH69Hemia8o-33" vertex="1">
          <mxGeometry x="25" y="945" width="45" height="45" as="geometry" />
        </mxCell>
        <mxCell id="XHNXw9KM670AtYHm92KE-7" value="" style="dashed=0;outlineConnect=0;html=1;align=center;labelPosition=center;verticalLabelPosition=bottom;verticalAlign=top;shape=mxgraph.webicons.instagram;gradientColor=#DFDEDE" parent="Dt40_mIN8QH69Hemia8o-33" vertex="1">
          <mxGeometry x="130" y="945" width="50" height="45" as="geometry" />
        </mxCell>
        <mxCell id="Dt40_mIN8QH69Hemia8o-48" value="" style="rounded=0;whiteSpace=wrap;html=1;" parent="Dt40_mIN8QH69Hemia8o-33" vertex="1">
          <mxGeometry x="40" y="720" width="810" height="160" as="geometry" />
        </mxCell>
        <mxCell id="1idF1fKg6CB-ofbAEXMm-1" value="Lorem ipsum dolor sit amet, consectetur adipisicing elit, sed do eiusmod tempor incididunt ut labore et dolore magna aliqua. Ut enim ad minim veniam, quis nostrud exercitation ullamco laboris nisi ut aliquip ex ea commodo consequat. Duis aute irure dolor in reprehenderit in voluptate velit esse cillum dolore eu fugiat nulla pariatur." style="text;spacingTop=-5;whiteSpace=wrap;html=1;align=left;fontSize=12;fontFamily=Helvetica;fillColor=none;strokeColor=none;" parent="Dt40_mIN8QH69Hemia8o-33" vertex="1">
          <mxGeometry x="85" y="410" width="720" height="60" as="geometry" />
        </mxCell>
        <mxCell id="1idF1fKg6CB-ofbAEXMm-2" value="Clickable&lt;br&gt;link" style="strokeWidth=1;shadow=0;dashed=0;align=center;html=1;shape=mxgraph.mockup.text.callout;linkText=;textSize=17;textColor=#666666;callDir=SE;callStyle=line;fontSize=17;fontColor=#666666;align=right;verticalAlign=bottom;strokeColor=#666666;" parent="Dt40_mIN8QH69Hemia8o-33" vertex="1">
          <mxGeometry x="455" y="760" width="200" height="100" as="geometry" />
        </mxCell>
        <mxCell id="1idF1fKg6CB-ofbAEXMm-3" value="Clickable&lt;br&gt;link" style="strokeWidth=1;shadow=0;dashed=0;align=center;html=1;shape=mxgraph.mockup.text.callout;linkText=;textSize=17;textColor=#666666;callDir=SE;callStyle=line;fontSize=17;fontColor=#666666;align=right;verticalAlign=bottom;strokeColor=#666666;" parent="Dt40_mIN8QH69Hemia8o-33" vertex="1">
          <mxGeometry x="462.5" y="580" width="200" height="100" as="geometry" />
        </mxCell>
        <mxCell id="qzvEQ2GM2CwIxemLWeZq-1" value="" style="verticalLabelPosition=bottom;shadow=0;dashed=0;align=center;html=1;verticalAlign=top;strokeWidth=1;shape=mxgraph.mockup.navigation.coverFlow;strokeColor=#999999;" parent="Dt40_mIN8QH69Hemia8o-33" vertex="1">
          <mxGeometry x="310" y="600" width="210" height="80" as="geometry" />
        </mxCell>
        <mxCell id="qzvEQ2GM2CwIxemLWeZq-2" value="Navigates&lt;br&gt;to Contact&lt;br&gt;page" style="strokeWidth=1;shadow=0;dashed=0;align=center;html=1;shape=mxgraph.mockup.text.callout;linkText=;textSize=17;textColor=#666666;callDir=SW;callStyle=line;fontSize=17;fontColor=#666666;align=left;verticalAlign=bottom;strokeColor=#666666;" parent="Dt40_mIN8QH69Hemia8o-33" vertex="1">
          <mxGeometry x="660" y="160" width="30" height="110" as="geometry" />
        </mxCell>
        <mxCell id="qzvEQ2GM2CwIxemLWeZq-5" value="Jumps&amp;nbsp;&lt;br&gt;down to&lt;br&gt;About" style="strokeWidth=1;shadow=0;dashed=0;align=center;html=1;shape=mxgraph.mockup.text.callout;linkText=;textSize=17;textColor=#666666;callDir=SW;callStyle=line;fontSize=17;fontColor=#666666;align=left;verticalAlign=bottom;strokeColor=#666666;" parent="Dt40_mIN8QH69Hemia8o-33" vertex="1">
          <mxGeometry x="550" y="160" width="50" height="100" as="geometry" />
        </mxCell>
        <mxCell id="qzvEQ2GM2CwIxemLWeZq-7" value="rotating images of products in store" style="text;html=1;strokeColor=none;fillColor=none;align=center;verticalAlign=middle;whiteSpace=wrap;rounded=0;" parent="Dt40_mIN8QH69Hemia8o-33" vertex="1">
          <mxGeometry x="95" y="560" width="60" height="70" as="geometry" />
        </mxCell>
        <mxCell id="qzvEQ2GM2CwIxemLWeZq-8" value="" style="endArrow=classic;html=1;rounded=0;entryX=-0.025;entryY=0.364;entryDx=0;entryDy=0;entryPerimeter=0;" parent="Dt40_mIN8QH69Hemia8o-33" target="qzvEQ2GM2CwIxemLWeZq-1" edge="1">
          <mxGeometry width="50" height="50" relative="1" as="geometry">
            <mxPoint x="160" y="600" as="sourcePoint" />
            <mxPoint x="210" y="550" as="targetPoint" />
          </mxGeometry>
        </mxCell>
        <mxCell id="qzvEQ2GM2CwIxemLWeZq-9" value="&lt;font style=&quot;font-size: 14px;&quot;&gt;Social icons clickable links redirect to social site homepages&lt;/font&gt;" style="text;html=1;strokeColor=none;fillColor=none;align=center;verticalAlign=middle;whiteSpace=wrap;rounded=0;" parent="Dt40_mIN8QH69Hemia8o-33" vertex="1">
          <mxGeometry x="265" y="888" width="92" height="80" as="geometry" />
        </mxCell>
        <mxCell id="qzvEQ2GM2CwIxemLWeZq-11" value="" style="endArrow=classic;html=1;rounded=0;exitX=0.057;exitY=0.12;exitDx=0;exitDy=0;exitPerimeter=0;" parent="Dt40_mIN8QH69Hemia8o-33" source="qzvEQ2GM2CwIxemLWeZq-9" edge="1">
          <mxGeometry width="50" height="50" relative="1" as="geometry">
            <mxPoint x="222.5" y="920" as="sourcePoint" />
            <mxPoint x="202" y="936" as="targetPoint" />
          </mxGeometry>
        </mxCell>
        <mxCell id="CFEvG4N6sFEIjdFLaoKz-3" value="&lt;font style=&quot;font-size: 18px;&quot;&gt;Contact us&lt;/font&gt;" style="text;html=1;strokeColor=none;fillColor=none;align=center;verticalAlign=middle;whiteSpace=wrap;rounded=0;" parent="Dt40_mIN8QH69Hemia8o-33" vertex="1">
          <mxGeometry x="373" y="744" width="95" height="30" as="geometry" />
        </mxCell>
        <mxCell id="CFEvG4N6sFEIjdFLaoKz-5" value="" style="verticalLabelPosition=bottom;shadow=0;dashed=0;align=center;html=1;verticalAlign=top;strokeWidth=1;shape=mxgraph.mockup.misc.mail2;strokeColor=#999999;" parent="Dt40_mIN8QH69Hemia8o-33" vertex="1">
          <mxGeometry x="390.5" y="790" width="60" height="40" as="geometry" />
        </mxCell>
        <mxCell id="qzvEQ2GM2CwIxemLWeZq-4" value="Navigates&lt;br&gt;to social&lt;br&gt;icons" style="strokeWidth=1;shadow=0;dashed=0;align=center;html=1;shape=mxgraph.mockup.text.callout;linkText=;textSize=17;textColor=#666666;callDir=SE;callStyle=line;fontSize=17;fontColor=#666666;align=right;verticalAlign=bottom;strokeColor=#666666;" parent="Dt40_mIN8QH69Hemia8o-33" vertex="1">
          <mxGeometry x="766" y="161.25" width="100" height="80" as="geometry" />
        </mxCell>
      </root>
    </mxGraphModel>
  </diagram>
  <diagram id="i-Lplv0HuYQV0wvjsoWZ" name="Page-2">
    <mxGraphModel dx="1034" dy="472" grid="1" gridSize="10" guides="1" tooltips="1" connect="1" arrows="1" fold="1" page="1" pageScale="1" pageWidth="850" pageHeight="1100" math="0" shadow="0">
      <root>
        <mxCell id="0" />
        <mxCell id="1" parent="0" />
        <mxCell id="DsjHSmOAymidpt_hMtCz-1" value="&lt;span style=&quot;font-size: 24px;&quot;&gt;&lt;b&gt;Shop&lt;/b&gt;&lt;br&gt;&lt;/span&gt;" style="text;html=1;strokeColor=none;fillColor=none;align=center;verticalAlign=middle;whiteSpace=wrap;rounded=0;" parent="1" vertex="1">
          <mxGeometry x="395" y="40" width="60" height="30" as="geometry" />
        </mxCell>
        <mxCell id="ZvhnpmJmCHGSHpwLy3lI-1" value="" style="strokeWidth=1;shadow=0;dashed=0;align=center;html=1;shape=mxgraph.mockup.containers.browserWindow;rSize=0;strokeColor=#666666;strokeColor2=#008cff;strokeColor3=#c4c4c4;mainText=,;recursiveResize=0;" parent="1" vertex="1">
          <mxGeometry x="20" y="120" width="810" height="1040" as="geometry" />
        </mxCell>
        <mxCell id="ZvhnpmJmCHGSHpwLy3lI-2" value="Shop" style="strokeWidth=1;shadow=0;dashed=0;align=center;html=1;shape=mxgraph.mockup.containers.anchor;fontSize=17;fontColor=#666666;align=left;whiteSpace=wrap;" parent="ZvhnpmJmCHGSHpwLy3lI-1" vertex="1">
          <mxGeometry x="60" y="12" width="110" height="26" as="geometry" />
        </mxCell>
        <mxCell id="ZvhnpmJmCHGSHpwLy3lI-3" value="https://www.dollysdivinesucculents.com/shop" style="strokeWidth=1;shadow=0;dashed=0;align=center;html=1;shape=mxgraph.mockup.containers.anchor;rSize=0;fontSize=17;fontColor=#666666;align=left;" parent="ZvhnpmJmCHGSHpwLy3lI-1" vertex="1">
          <mxGeometry x="130" y="60" width="400" height="26" as="geometry" />
        </mxCell>
        <mxCell id="8q7o80vvXr6a99i3PlZw-1" value="&lt;font style=&quot;font-size: 24px;&quot;&gt;&lt;b&gt;Welcome to the Succulent Store&lt;/b&gt;&lt;/font&gt;" style="text;html=1;strokeColor=none;fillColor=none;align=center;verticalAlign=middle;whiteSpace=wrap;rounded=0;" parent="ZvhnpmJmCHGSHpwLy3lI-1" vertex="1">
          <mxGeometry x="225" y="160" width="370" height="30" as="geometry" />
        </mxCell>
        <mxCell id="8q7o80vvXr6a99i3PlZw-3" value="" style="rounded=1;whiteSpace=wrap;html=1;" parent="ZvhnpmJmCHGSHpwLy3lI-1" vertex="1">
          <mxGeometry x="15" y="380" width="785" height="140" as="geometry" />
        </mxCell>
        <mxCell id="8q7o80vvXr6a99i3PlZw-10" value="" style="verticalLabelPosition=bottom;shadow=0;dashed=0;align=center;html=1;verticalAlign=top;strokeWidth=1;shape=mxgraph.mockup.graphics.simpleIcon;strokeColor=#999999;" parent="ZvhnpmJmCHGSHpwLy3lI-1" vertex="1">
          <mxGeometry x="385" y="405" width="50" height="50" as="geometry" />
        </mxCell>
        <mxCell id="8q7o80vvXr6a99i3PlZw-21" value="Decription&lt;br&gt;Price" style="text;html=1;strokeColor=none;fillColor=none;align=center;verticalAlign=middle;whiteSpace=wrap;rounded=0;" parent="ZvhnpmJmCHGSHpwLy3lI-1" vertex="1">
          <mxGeometry x="120" y="460" width="60" height="30" as="geometry" />
        </mxCell>
        <mxCell id="8q7o80vvXr6a99i3PlZw-22" value="Description&lt;br&gt;Price" style="text;html=1;strokeColor=none;fillColor=none;align=center;verticalAlign=middle;whiteSpace=wrap;rounded=0;" parent="ZvhnpmJmCHGSHpwLy3lI-1" vertex="1">
          <mxGeometry x="377.5" y="460" width="60" height="30" as="geometry" />
        </mxCell>
        <mxCell id="8q7o80vvXr6a99i3PlZw-23" value="Description&lt;br&gt;Price" style="text;html=1;strokeColor=none;fillColor=none;align=center;verticalAlign=middle;whiteSpace=wrap;rounded=0;" parent="ZvhnpmJmCHGSHpwLy3lI-1" vertex="1">
          <mxGeometry x="660" y="460" width="60" height="30" as="geometry" />
        </mxCell>
        <mxCell id="8q7o80vvXr6a99i3PlZw-28" value="image" style="text;html=1;strokeColor=none;fillColor=none;align=center;verticalAlign=middle;whiteSpace=wrap;rounded=0;" parent="ZvhnpmJmCHGSHpwLy3lI-1" vertex="1">
          <mxGeometry x="380" y="415" width="60" height="30" as="geometry" />
        </mxCell>
        <mxCell id="8q7o80vvXr6a99i3PlZw-30" value="" style="verticalLabelPosition=bottom;shadow=0;dashed=0;align=center;html=1;verticalAlign=top;strokeWidth=1;shape=mxgraph.mockup.graphics.simpleIcon;strokeColor=#999999;" parent="ZvhnpmJmCHGSHpwLy3lI-1" vertex="1">
          <mxGeometry x="20" y="120" width="90" height="70" as="geometry" />
        </mxCell>
        <mxCell id="8q7o80vvXr6a99i3PlZw-31" value="logo" style="text;html=1;strokeColor=none;fillColor=none;align=center;verticalAlign=middle;whiteSpace=wrap;rounded=0;" parent="ZvhnpmJmCHGSHpwLy3lI-1" vertex="1">
          <mxGeometry x="35" y="140" width="60" height="30" as="geometry" />
        </mxCell>
        <mxCell id="8xJgyAfATFFPqs3eiat9-16" value="" style="strokeWidth=1;shadow=0;dashed=0;align=center;html=1;shape=mxgraph.mockup.rrect;rSize=10;fillColor=#ffffff;strokeColor=#666666;" parent="ZvhnpmJmCHGSHpwLy3lI-1" vertex="1">
          <mxGeometry x="475" y="120" width="325" height="30" as="geometry" />
        </mxCell>
        <mxCell id="8xJgyAfATFFPqs3eiat9-17" value="About Us&amp;nbsp;" style="strokeColor=inherit;fillColor=inherit;gradientColor=inherit;strokeWidth=1;shadow=0;dashed=0;align=center;html=1;shape=mxgraph.mockup.rrect;rSize=0;fontSize=17;fontColor=#666666;fontStyle=1;resizeHeight=1;whiteSpace=wrap;" parent="8xJgyAfATFFPqs3eiat9-16" vertex="1">
          <mxGeometry width="90" height="30" relative="1" as="geometry">
            <mxPoint x="60" as="offset" />
          </mxGeometry>
        </mxCell>
        <mxCell id="8xJgyAfATFFPqs3eiat9-18" value="Contact Us" style="strokeColor=inherit;fillColor=inherit;gradientColor=inherit;strokeWidth=1;shadow=0;dashed=0;align=center;html=1;shape=mxgraph.mockup.rrect;rSize=0;fontSize=17;fontColor=#666666;fontStyle=1;resizeHeight=1;whiteSpace=wrap;" parent="8xJgyAfATFFPqs3eiat9-16" vertex="1">
          <mxGeometry width="100" height="30" relative="1" as="geometry">
            <mxPoint x="150" as="offset" />
          </mxGeometry>
        </mxCell>
        <mxCell id="8xJgyAfATFFPqs3eiat9-19" value="Connect" style="strokeColor=inherit;fillColor=inherit;gradientColor=inherit;strokeWidth=1;shadow=0;dashed=0;align=center;html=1;shape=mxgraph.mockup.rightButton;rSize=10;fontSize=17;fontColor=#666666;fontStyle=1;resizeHeight=1;whiteSpace=wrap;" parent="8xJgyAfATFFPqs3eiat9-16" vertex="1">
          <mxGeometry x="1" width="79" height="30" relative="1" as="geometry">
            <mxPoint x="-75" as="offset" />
          </mxGeometry>
        </mxCell>
        <mxCell id="8xJgyAfATFFPqs3eiat9-20" value="Home" style="strokeWidth=1;shadow=0;dashed=0;align=center;html=1;shape=mxgraph.mockup.leftButton;rSize=10;fontSize=17;fontColor=#ffffff;fontStyle=1;fillColor=#008cff;strokeColor=#008cff;resizeHeight=1;whiteSpace=wrap;" parent="8xJgyAfATFFPqs3eiat9-16" vertex="1">
          <mxGeometry width="60" height="30" relative="1" as="geometry" />
        </mxCell>
        <mxCell id="bHBcHFODBQfDl9JokpOs-1" value="" style="strokeColor=#999999;verticalLabelPosition=bottom;shadow=0;dashed=0;verticalAlign=top;strokeWidth=2;html=1;shape=mxgraph.mockup.misc.copyrightIcon;" parent="ZvhnpmJmCHGSHpwLy3lI-1" vertex="1">
          <mxGeometry x="363" y="990" width="12" height="10" as="geometry" />
        </mxCell>
        <mxCell id="tQmRThFbcEIiVLRKJS3y-1" value="&lt;font style=&quot;font-size: 14px;&quot;&gt;Copyright&lt;/font&gt;" style="text;html=1;strokeColor=none;fillColor=none;align=center;verticalAlign=middle;whiteSpace=wrap;rounded=0;" parent="ZvhnpmJmCHGSHpwLy3lI-1" vertex="1">
          <mxGeometry x="290" y="980" width="60" height="30" as="geometry" />
        </mxCell>
        <mxCell id="tQmRThFbcEIiVLRKJS3y-2" value="&lt;font style=&quot;font-size: 14px;&quot;&gt;2023 Dolly&#39;s Divine Succulents&lt;/font&gt;" style="text;html=1;strokeColor=none;fillColor=none;align=center;verticalAlign=middle;whiteSpace=wrap;rounded=0;" parent="ZvhnpmJmCHGSHpwLy3lI-1" vertex="1">
          <mxGeometry x="385" y="980" width="205" height="30" as="geometry" />
        </mxCell>
        <mxCell id="Hwk8Ll3QR7LZ2w61Kohe-1" value="Background Image/color cover page" style="text;html=1;strokeColor=none;fillColor=none;align=center;verticalAlign=middle;whiteSpace=wrap;rounded=0;" parent="ZvhnpmJmCHGSHpwLy3lI-1" vertex="1">
          <mxGeometry x="150" y="120" width="60" height="60" as="geometry" />
        </mxCell>
        <mxCell id="8q7o80vvXr6a99i3PlZw-2" value="" style="rounded=1;whiteSpace=wrap;html=1;" parent="ZvhnpmJmCHGSHpwLy3lI-1" vertex="1">
          <mxGeometry x="20" y="200" width="780" height="130" as="geometry" />
        </mxCell>
        <mxCell id="8q7o80vvXr6a99i3PlZw-4" value="" style="rounded=1;whiteSpace=wrap;html=1;" parent="1" vertex="1">
          <mxGeometry x="30" y="690" width="790" height="150" as="geometry" />
        </mxCell>
        <mxCell id="8q7o80vvXr6a99i3PlZw-5" value="" style="rounded=1;whiteSpace=wrap;html=1;" parent="1" vertex="1">
          <mxGeometry x="30" y="890" width="790" height="150" as="geometry" />
        </mxCell>
        <mxCell id="8q7o80vvXr6a99i3PlZw-6" value="" style="verticalLabelPosition=bottom;shadow=0;dashed=0;align=center;html=1;verticalAlign=top;strokeWidth=1;shape=mxgraph.mockup.graphics.simpleIcon;strokeColor=#999999;" parent="1" vertex="1">
          <mxGeometry x="150" y="335" width="50" height="50" as="geometry" />
        </mxCell>
        <mxCell id="8q7o80vvXr6a99i3PlZw-7" value="" style="verticalLabelPosition=bottom;shadow=0;dashed=0;align=center;html=1;verticalAlign=top;strokeWidth=1;shape=mxgraph.mockup.graphics.simpleIcon;strokeColor=#999999;" parent="1" vertex="1">
          <mxGeometry x="400" y="335" width="50" height="50" as="geometry" />
        </mxCell>
        <mxCell id="8q7o80vvXr6a99i3PlZw-8" value="" style="verticalLabelPosition=bottom;shadow=0;dashed=0;align=center;html=1;verticalAlign=top;strokeWidth=1;shape=mxgraph.mockup.graphics.simpleIcon;strokeColor=#999999;" parent="1" vertex="1">
          <mxGeometry x="680" y="335" width="50" height="50" as="geometry" />
        </mxCell>
        <mxCell id="8q7o80vvXr6a99i3PlZw-9" value="" style="verticalLabelPosition=bottom;shadow=0;dashed=0;align=center;html=1;verticalAlign=top;strokeWidth=1;shape=mxgraph.mockup.graphics.simpleIcon;strokeColor=#999999;" parent="1" vertex="1">
          <mxGeometry x="150" y="520" width="50" height="50" as="geometry" />
        </mxCell>
        <mxCell id="8q7o80vvXr6a99i3PlZw-11" value="" style="verticalLabelPosition=bottom;shadow=0;dashed=0;align=center;html=1;verticalAlign=top;strokeWidth=1;shape=mxgraph.mockup.graphics.simpleIcon;strokeColor=#999999;" parent="1" vertex="1">
          <mxGeometry x="680" y="520" width="50" height="50" as="geometry" />
        </mxCell>
        <mxCell id="8q7o80vvXr6a99i3PlZw-12" value="" style="verticalLabelPosition=bottom;shadow=0;dashed=0;align=center;html=1;verticalAlign=top;strokeWidth=1;shape=mxgraph.mockup.graphics.simpleIcon;strokeColor=#999999;" parent="1" vertex="1">
          <mxGeometry x="150" y="720" width="50" height="50" as="geometry" />
        </mxCell>
        <mxCell id="8q7o80vvXr6a99i3PlZw-13" value="" style="verticalLabelPosition=bottom;shadow=0;dashed=0;align=center;html=1;verticalAlign=top;strokeWidth=1;shape=mxgraph.mockup.graphics.simpleIcon;strokeColor=#999999;" parent="1" vertex="1">
          <mxGeometry x="405" y="720" width="50" height="50" as="geometry" />
        </mxCell>
        <mxCell id="8q7o80vvXr6a99i3PlZw-14" value="" style="verticalLabelPosition=bottom;shadow=0;dashed=0;align=center;html=1;verticalAlign=top;strokeWidth=1;shape=mxgraph.mockup.graphics.simpleIcon;strokeColor=#999999;" parent="1" vertex="1">
          <mxGeometry x="680" y="720" width="50" height="50" as="geometry" />
        </mxCell>
        <mxCell id="8q7o80vvXr6a99i3PlZw-15" value="" style="verticalLabelPosition=bottom;shadow=0;dashed=0;align=center;html=1;verticalAlign=top;strokeWidth=1;shape=mxgraph.mockup.graphics.simpleIcon;strokeColor=#999999;" parent="1" vertex="1">
          <mxGeometry x="150" y="920" width="50" height="50" as="geometry" />
        </mxCell>
        <mxCell id="8q7o80vvXr6a99i3PlZw-16" value="" style="verticalLabelPosition=bottom;shadow=0;dashed=0;align=center;html=1;verticalAlign=top;strokeWidth=1;shape=mxgraph.mockup.graphics.simpleIcon;strokeColor=#999999;" parent="1" vertex="1">
          <mxGeometry x="400" y="920" width="50" height="50" as="geometry" />
        </mxCell>
        <mxCell id="8q7o80vvXr6a99i3PlZw-17" value="" style="verticalLabelPosition=bottom;shadow=0;dashed=0;align=center;html=1;verticalAlign=top;strokeWidth=1;shape=mxgraph.mockup.graphics.simpleIcon;strokeColor=#999999;" parent="1" vertex="1">
          <mxGeometry x="675" y="920" width="50" height="50" as="geometry" />
        </mxCell>
        <mxCell id="8q7o80vvXr6a99i3PlZw-18" value="Description&lt;br&gt;Price" style="text;html=1;strokeColor=none;fillColor=none;align=center;verticalAlign=middle;whiteSpace=wrap;rounded=0;" parent="1" vertex="1">
          <mxGeometry x="145" y="390" width="60" height="30" as="geometry" />
        </mxCell>
        <mxCell id="8q7o80vvXr6a99i3PlZw-19" value="Description&lt;br&gt;Price" style="text;html=1;strokeColor=none;fillColor=none;align=center;verticalAlign=middle;whiteSpace=wrap;rounded=0;" parent="1" vertex="1">
          <mxGeometry x="395" y="390" width="60" height="30" as="geometry" />
        </mxCell>
        <mxCell id="8q7o80vvXr6a99i3PlZw-20" value="Description&lt;br&gt;Price" style="text;html=1;strokeColor=none;fillColor=none;align=center;verticalAlign=middle;whiteSpace=wrap;rounded=0;" parent="1" vertex="1">
          <mxGeometry x="675" y="390" width="60" height="30" as="geometry" />
        </mxCell>
        <mxCell id="8q7o80vvXr6a99i3PlZw-24" value="image" style="text;html=1;strokeColor=none;fillColor=none;align=center;verticalAlign=middle;whiteSpace=wrap;rounded=0;" parent="1" vertex="1">
          <mxGeometry x="145" y="345" width="60" height="30" as="geometry" />
        </mxCell>
        <mxCell id="8q7o80vvXr6a99i3PlZw-25" value="image" style="text;html=1;strokeColor=none;fillColor=none;align=center;verticalAlign=middle;whiteSpace=wrap;rounded=0;" parent="1" vertex="1">
          <mxGeometry x="395" y="345" width="60" height="30" as="geometry" />
        </mxCell>
        <mxCell id="8q7o80vvXr6a99i3PlZw-26" value="image" style="text;html=1;strokeColor=none;fillColor=none;align=center;verticalAlign=middle;whiteSpace=wrap;rounded=0;" parent="1" vertex="1">
          <mxGeometry x="675" y="345" width="60" height="30" as="geometry" />
        </mxCell>
        <mxCell id="8q7o80vvXr6a99i3PlZw-27" value="image" style="text;html=1;strokeColor=none;fillColor=none;align=center;verticalAlign=middle;whiteSpace=wrap;rounded=0;" parent="1" vertex="1">
          <mxGeometry x="145" y="530" width="60" height="30" as="geometry" />
        </mxCell>
        <mxCell id="8q7o80vvXr6a99i3PlZw-29" value="image" style="text;html=1;strokeColor=none;fillColor=none;align=center;verticalAlign=middle;whiteSpace=wrap;rounded=0;" parent="1" vertex="1">
          <mxGeometry x="675" y="535" width="60" height="30" as="geometry" />
        </mxCell>
        <mxCell id="8q7o80vvXr6a99i3PlZw-32" value="image" style="text;html=1;strokeColor=none;fillColor=none;align=center;verticalAlign=middle;whiteSpace=wrap;rounded=0;" parent="1" vertex="1">
          <mxGeometry x="145" y="730" width="60" height="30" as="geometry" />
        </mxCell>
        <mxCell id="8q7o80vvXr6a99i3PlZw-33" value="Decription&lt;br&gt;Price" style="text;html=1;strokeColor=none;fillColor=none;align=center;verticalAlign=middle;whiteSpace=wrap;rounded=0;" parent="1" vertex="1">
          <mxGeometry x="145" y="785" width="60" height="30" as="geometry" />
        </mxCell>
        <mxCell id="8q7o80vvXr6a99i3PlZw-34" value="Description&amp;nbsp;&lt;br&gt;Price" style="text;html=1;strokeColor=none;fillColor=none;align=center;verticalAlign=middle;whiteSpace=wrap;rounded=0;" parent="1" vertex="1">
          <mxGeometry x="680" y="785" width="60" height="30" as="geometry" />
        </mxCell>
        <mxCell id="8q7o80vvXr6a99i3PlZw-35" value="Description&amp;nbsp;&lt;br&gt;Price" style="text;html=1;strokeColor=none;fillColor=none;align=center;verticalAlign=middle;whiteSpace=wrap;rounded=0;" parent="1" vertex="1">
          <mxGeometry x="405" y="785" width="60" height="30" as="geometry" />
        </mxCell>
        <mxCell id="8q7o80vvXr6a99i3PlZw-36" value="image" style="text;html=1;strokeColor=none;fillColor=none;align=center;verticalAlign=middle;whiteSpace=wrap;rounded=0;" parent="1" vertex="1">
          <mxGeometry x="675" y="730" width="60" height="30" as="geometry" />
        </mxCell>
        <mxCell id="8q7o80vvXr6a99i3PlZw-37" value="image" style="text;html=1;strokeColor=none;fillColor=none;align=center;verticalAlign=middle;whiteSpace=wrap;rounded=0;" parent="1" vertex="1">
          <mxGeometry x="405" y="730" width="60" height="30" as="geometry" />
        </mxCell>
        <mxCell id="8q7o80vvXr6a99i3PlZw-38" value="image" style="text;html=1;strokeColor=none;fillColor=none;align=center;verticalAlign=middle;whiteSpace=wrap;rounded=0;" parent="1" vertex="1">
          <mxGeometry x="145" y="930" width="60" height="30" as="geometry" />
        </mxCell>
        <mxCell id="8q7o80vvXr6a99i3PlZw-39" value="image" style="text;html=1;strokeColor=none;fillColor=none;align=center;verticalAlign=middle;whiteSpace=wrap;rounded=0;" parent="1" vertex="1">
          <mxGeometry x="400" y="930" width="60" height="30" as="geometry" />
        </mxCell>
        <mxCell id="8q7o80vvXr6a99i3PlZw-40" value="image" style="text;html=1;strokeColor=none;fillColor=none;align=center;verticalAlign=middle;whiteSpace=wrap;rounded=0;" parent="1" vertex="1">
          <mxGeometry x="675" y="930" width="60" height="30" as="geometry" />
        </mxCell>
        <mxCell id="8q7o80vvXr6a99i3PlZw-41" value="Description&lt;br&gt;Price" style="text;html=1;strokeColor=none;fillColor=none;align=center;verticalAlign=middle;whiteSpace=wrap;rounded=0;" parent="1" vertex="1">
          <mxGeometry x="150" y="980" width="60" height="30" as="geometry" />
        </mxCell>
        <mxCell id="8q7o80vvXr6a99i3PlZw-42" value="Description&lt;br&gt;Price" style="text;html=1;strokeColor=none;fillColor=none;align=center;verticalAlign=middle;whiteSpace=wrap;rounded=0;" parent="1" vertex="1">
          <mxGeometry x="405" y="980" width="60" height="30" as="geometry" />
        </mxCell>
        <mxCell id="8q7o80vvXr6a99i3PlZw-43" value="Description&lt;br&gt;Price" style="text;html=1;strokeColor=none;fillColor=none;align=center;verticalAlign=middle;whiteSpace=wrap;rounded=0;" parent="1" vertex="1">
          <mxGeometry x="675" y="980" width="60" height="30" as="geometry" />
        </mxCell>
      </root>
    </mxGraphModel>
  </diagram>
  <diagram id="JD7XYZf3urceNeqcPD7T" name="Page-3">
    <mxGraphModel dx="1034" dy="472" grid="1" gridSize="10" guides="1" tooltips="1" connect="1" arrows="1" fold="1" page="1" pageScale="1" pageWidth="850" pageHeight="1100" math="0" shadow="0">
      <root>
        <mxCell id="0" />
        <mxCell id="1" parent="0" />
        <mxCell id="ZuZG6qq2qMKesYJ0wgC9-1" value="" style="strokeWidth=1;shadow=0;dashed=0;align=center;html=1;shape=mxgraph.mockup.containers.browserWindow;rSize=0;strokeColor=#666666;strokeColor2=#008cff;strokeColor3=#c4c4c4;mainText=,;recursiveResize=0;" parent="1" vertex="1">
          <mxGeometry y="120" width="850" height="750" as="geometry" />
        </mxCell>
        <mxCell id="JUM8o5w-Y_y0RFBF4EaK-2" value="" style="verticalLabelPosition=bottom;shadow=0;dashed=0;align=center;html=1;verticalAlign=top;strokeWidth=1;shape=mxgraph.mockup.graphics.simpleIcon;strokeColor=#999999;" parent="ZuZG6qq2qMKesYJ0wgC9-1" vertex="1">
          <mxGeometry x="10" y="120" width="100" height="80" as="geometry" />
        </mxCell>
        <mxCell id="ZuZG6qq2qMKesYJ0wgC9-2" value="Contact" style="strokeWidth=1;shadow=0;dashed=0;align=center;html=1;shape=mxgraph.mockup.containers.anchor;fontSize=17;fontColor=#666666;align=left;whiteSpace=wrap;" parent="ZuZG6qq2qMKesYJ0wgC9-1" vertex="1">
          <mxGeometry x="60" y="12" width="110" height="26" as="geometry" />
        </mxCell>
        <mxCell id="ZuZG6qq2qMKesYJ0wgC9-3" value="https://www.dollysdivinesucculents.com/contact" style="strokeWidth=1;shadow=0;dashed=0;align=center;html=1;shape=mxgraph.mockup.containers.anchor;rSize=0;fontSize=17;fontColor=#666666;align=left;" parent="ZuZG6qq2qMKesYJ0wgC9-1" vertex="1">
          <mxGeometry x="130" y="60" width="400" height="26" as="geometry" />
        </mxCell>
        <mxCell id="Z86Eto3JUBLBfTfUXQzi-2" value="First Name" style="strokeWidth=1;shadow=0;dashed=0;align=center;html=1;shape=mxgraph.mockup.forms.anchor;align=right;spacingRight=2;fontColor=#666666;" parent="ZuZG6qq2qMKesYJ0wgC9-1" vertex="1">
          <mxGeometry x="190" y="300" width="50" height="18" as="geometry" />
        </mxCell>
        <mxCell id="Z86Eto3JUBLBfTfUXQzi-3" value="First Name" style="strokeWidth=1;shadow=0;dashed=0;align=center;html=1;shape=mxgraph.mockup.forms.rrect;fillColor=#ffffff;rSize=0;fontColor=#666666;align=left;spacingLeft=3;strokeColor=#999999;" parent="ZuZG6qq2qMKesYJ0wgC9-1" vertex="1">
          <mxGeometry x="240" y="290" width="350" height="28" as="geometry" />
        </mxCell>
        <mxCell id="Z86Eto3JUBLBfTfUXQzi-4" value="Last Name" style="strokeWidth=1;shadow=0;dashed=0;align=center;html=1;shape=mxgraph.mockup.forms.anchor;align=right;spacingRight=2;fontColor=#666666;" parent="ZuZG6qq2qMKesYJ0wgC9-1" vertex="1">
          <mxGeometry x="190" y="335" width="50" height="18" as="geometry" />
        </mxCell>
        <mxCell id="Z86Eto3JUBLBfTfUXQzi-5" value="Last Name" style="strokeWidth=1;shadow=0;dashed=0;align=center;html=1;shape=mxgraph.mockup.forms.rrect;fillColor=#ffffff;rSize=0;fontColor=#666666;align=left;spacingLeft=3;strokeColor=#999999;" parent="ZuZG6qq2qMKesYJ0wgC9-1" vertex="1">
          <mxGeometry x="240" y="330" width="350" height="23" as="geometry" />
        </mxCell>
        <mxCell id="Z86Eto3JUBLBfTfUXQzi-6" value="Email" style="strokeWidth=1;shadow=0;dashed=0;align=center;html=1;shape=mxgraph.mockup.forms.anchor;align=right;spacingRight=2;fontColor=#666666;" parent="ZuZG6qq2qMKesYJ0wgC9-1" vertex="1">
          <mxGeometry x="190" y="370" width="50" height="18" as="geometry" />
        </mxCell>
        <mxCell id="Z86Eto3JUBLBfTfUXQzi-7" value="you@gmail.com" style="strokeWidth=1;shadow=0;dashed=0;align=center;html=1;shape=mxgraph.mockup.forms.rrect;fillColor=#ffffff;rSize=0;fontColor=#666666;align=left;spacingLeft=3;strokeColor=#999999;" parent="ZuZG6qq2qMKesYJ0wgC9-1" vertex="1">
          <mxGeometry x="240" y="360" width="350" height="28" as="geometry" />
        </mxCell>
        <mxCell id="Z86Eto3JUBLBfTfUXQzi-8" value="Phone Number" style="strokeWidth=1;shadow=0;dashed=0;align=center;html=1;shape=mxgraph.mockup.forms.anchor;align=right;spacingRight=2;fontColor=#666666;" parent="ZuZG6qq2qMKesYJ0wgC9-1" vertex="1">
          <mxGeometry x="190" y="405" width="50" height="18" as="geometry" />
        </mxCell>
        <mxCell id="Z86Eto3JUBLBfTfUXQzi-9" value="***-***-****" style="strokeWidth=1;shadow=0;dashed=0;align=center;html=1;shape=mxgraph.mockup.forms.rrect;fillColor=#ffffff;rSize=0;fontColor=#666666;align=left;spacingLeft=3;strokeColor=#999999;" parent="ZuZG6qq2qMKesYJ0wgC9-1" vertex="1">
          <mxGeometry x="240" y="400" width="350" height="23" as="geometry" />
        </mxCell>
        <mxCell id="Z86Eto3JUBLBfTfUXQzi-10" value="Message" style="strokeWidth=1;shadow=0;dashed=0;align=center;html=1;shape=mxgraph.mockup.forms.anchor;align=right;spacingRight=2;fontColor=#666666;" parent="ZuZG6qq2qMKesYJ0wgC9-1" vertex="1">
          <mxGeometry x="190" y="440" width="50" height="18" as="geometry" />
        </mxCell>
        <mxCell id="Z86Eto3JUBLBfTfUXQzi-12" value="Lorem ipsum dolor sit amet, consectetur adipisicing elit, sed do eiusmod tempor incididunt ut labore et dolore magna aliqua." style="strokeWidth=1;shadow=0;dashed=0;align=center;html=1;shape=mxgraph.mockup.forms.rrect;fillColor=#ffffff;rSize=0;fontColor=#666666;align=left;spacingLeft=3;strokeColor=#999999;verticalAlign=top;whiteSpace=wrap;" parent="ZuZG6qq2qMKesYJ0wgC9-1" vertex="1">
          <mxGeometry x="240" y="440" width="350" height="125" as="geometry" />
        </mxCell>
        <mxCell id="Z86Eto3JUBLBfTfUXQzi-13" value="" style="strokeWidth=1;shadow=0;dashed=0;align=center;html=1;shape=mxgraph.mockup.rrect;rSize=10;fillColor=#ffffff;strokeColor=#666666;" parent="ZuZG6qq2qMKesYJ0wgC9-1" vertex="1">
          <mxGeometry x="480" y="120" width="330" height="30" as="geometry" />
        </mxCell>
        <mxCell id="Z86Eto3JUBLBfTfUXQzi-14" value="About Us" style="strokeColor=inherit;fillColor=inherit;gradientColor=inherit;strokeWidth=1;shadow=0;dashed=0;align=center;html=1;shape=mxgraph.mockup.rrect;rSize=0;fontSize=17;fontColor=#666666;fontStyle=1;resizeHeight=1;whiteSpace=wrap;" parent="Z86Eto3JUBLBfTfUXQzi-13" vertex="1">
          <mxGeometry width="90" height="30" relative="1" as="geometry">
            <mxPoint x="65" as="offset" />
          </mxGeometry>
        </mxCell>
        <mxCell id="Z86Eto3JUBLBfTfUXQzi-15" value="Contact Us" style="strokeColor=inherit;fillColor=inherit;gradientColor=inherit;strokeWidth=1;shadow=0;dashed=0;align=center;html=1;shape=mxgraph.mockup.rrect;rSize=0;fontSize=17;fontColor=#666666;fontStyle=1;resizeHeight=1;whiteSpace=wrap;" parent="Z86Eto3JUBLBfTfUXQzi-13" vertex="1">
          <mxGeometry width="100" height="30" relative="1" as="geometry">
            <mxPoint x="150" as="offset" />
          </mxGeometry>
        </mxCell>
        <mxCell id="Z86Eto3JUBLBfTfUXQzi-16" value="Connect" style="strokeColor=inherit;fillColor=inherit;gradientColor=inherit;strokeWidth=1;shadow=0;dashed=0;align=center;html=1;shape=mxgraph.mockup.rightButton;rSize=10;fontSize=17;fontColor=#666666;fontStyle=1;resizeHeight=1;whiteSpace=wrap;" parent="Z86Eto3JUBLBfTfUXQzi-13" vertex="1">
          <mxGeometry x="1" width="79" height="30" relative="1" as="geometry">
            <mxPoint x="-79" as="offset" />
          </mxGeometry>
        </mxCell>
        <mxCell id="Z86Eto3JUBLBfTfUXQzi-17" value="Home" style="strokeWidth=1;shadow=0;dashed=0;align=center;html=1;shape=mxgraph.mockup.leftButton;rSize=10;fontSize=17;fontColor=#ffffff;fontStyle=1;fillColor=#008cff;strokeColor=#008cff;resizeHeight=1;whiteSpace=wrap;" parent="Z86Eto3JUBLBfTfUXQzi-13" vertex="1">
          <mxGeometry width="70" height="30" relative="1" as="geometry" />
        </mxCell>
        <mxCell id="aJWTFPE27msHuerkbvYx-1" value="&lt;font style=&quot;font-size: 24px;&quot;&gt;&lt;b&gt;Contact Us&lt;/b&gt;&lt;/font&gt;" style="text;html=1;strokeColor=none;fillColor=none;align=center;verticalAlign=middle;whiteSpace=wrap;rounded=0;" parent="ZuZG6qq2qMKesYJ0wgC9-1" vertex="1">
          <mxGeometry x="340" y="200" width="140" height="30" as="geometry" />
        </mxCell>
        <mxCell id="aJWTFPE27msHuerkbvYx-2" value="" style="strokeColor=#999999;verticalLabelPosition=bottom;shadow=0;dashed=0;verticalAlign=top;strokeWidth=2;html=1;shape=mxgraph.mockup.misc.copyrightIcon;" parent="ZuZG6qq2qMKesYJ0wgC9-1" vertex="1">
          <mxGeometry x="390" y="717.5" width="17" height="15" as="geometry" />
        </mxCell>
        <mxCell id="xMeIBE9GRYdrcKsgBFlG-3" value="Option 1" style="strokeWidth=1;shadow=0;dashed=0;align=center;html=1;shape=mxgraph.mockup.forms.rrect;rSize=0;fillColor=#eeeeee;strokeColor=#999999;gradientColor=#cccccc;align=left;spacingLeft=4;fontSize=17;fontColor=#666666;labelPosition=right;" parent="ZuZG6qq2qMKesYJ0wgC9-1" vertex="1">
          <mxGeometry x="250" y="590" width="15" height="15" as="geometry" />
        </mxCell>
        <mxCell id="xMeIBE9GRYdrcKsgBFlG-4" value="Option 2" style="strokeWidth=1;shadow=0;dashed=0;align=center;html=1;shape=mxgraph.mockup.forms.rrect;rSize=0;fillColor=#eeeeee;strokeColor=#999999;gradientColor=#cccccc;align=left;spacingLeft=4;fontSize=17;fontColor=#666666;labelPosition=right;" parent="ZuZG6qq2qMKesYJ0wgC9-1" vertex="1">
          <mxGeometry x="375" y="590" width="15" height="15" as="geometry" />
        </mxCell>
        <mxCell id="xMeIBE9GRYdrcKsgBFlG-5" value="Option 3" style="strokeWidth=1;shadow=0;dashed=0;align=center;html=1;shape=mxgraph.mockup.forms.rrect;rSize=0;fillColor=#eeeeee;strokeColor=#999999;gradientColor=#cccccc;align=left;spacingLeft=4;fontSize=17;fontColor=#666666;labelPosition=right;" parent="ZuZG6qq2qMKesYJ0wgC9-1" vertex="1">
          <mxGeometry x="480" y="590" width="15" height="15" as="geometry" />
        </mxCell>
        <mxCell id="xMeIBE9GRYdrcKsgBFlG-6" value="Setting 1" style="shape=ellipse;fillColor=#eeeeee;strokeColor=#999999;gradientColor=#cccccc;html=1;align=left;spacingLeft=4;fontSize=17;fontColor=#666666;labelPosition=right;shadow=0;" parent="ZuZG6qq2qMKesYJ0wgC9-1" vertex="1">
          <mxGeometry x="290" y="640" width="15" height="15" as="geometry" />
        </mxCell>
        <mxCell id="xMeIBE9GRYdrcKsgBFlG-7" value="Setting 2" style="shape=ellipse;fillColor=#eeeeee;strokeColor=#999999;gradientColor=#cccccc;html=1;align=left;spacingLeft=4;fontSize=17;fontColor=#666666;labelPosition=right;shadow=0;" parent="ZuZG6qq2qMKesYJ0wgC9-1" vertex="1">
          <mxGeometry x="407" y="640" width="15" height="15" as="geometry" />
        </mxCell>
        <mxCell id="xMeIBE9GRYdrcKsgBFlG-13" value="&lt;font style=&quot;font-size: 14px;&quot;&gt;Copyright&lt;/font&gt;" style="text;html=1;strokeColor=none;fillColor=none;align=center;verticalAlign=middle;whiteSpace=wrap;rounded=0;" parent="ZuZG6qq2qMKesYJ0wgC9-1" vertex="1">
          <mxGeometry x="317.5" y="710" width="60" height="30" as="geometry" />
        </mxCell>
        <mxCell id="xMeIBE9GRYdrcKsgBFlG-14" value="&lt;font style=&quot;font-size: 14px;&quot;&gt;2023 Dolly&#39;s Divine Succulents&lt;/font&gt;" style="text;html=1;strokeColor=none;fillColor=none;align=center;verticalAlign=middle;whiteSpace=wrap;rounded=0;" parent="ZuZG6qq2qMKesYJ0wgC9-1" vertex="1">
          <mxGeometry x="400" y="710" width="240" height="30" as="geometry" />
        </mxCell>
        <mxCell id="xMeIBE9GRYdrcKsgBFlG-16" value="" style="shape=partialRectangle;whiteSpace=wrap;html=1;bottom=0;right=0;fillColor=none;" parent="ZuZG6qq2qMKesYJ0wgC9-1" vertex="1">
          <mxGeometry x="240" y="582.5" width="330" height="30" as="geometry" />
        </mxCell>
        <mxCell id="xMeIBE9GRYdrcKsgBFlG-17" value="" style="shape=partialRectangle;whiteSpace=wrap;html=1;top=0;left=0;fillColor=none;" parent="ZuZG6qq2qMKesYJ0wgC9-1" vertex="1">
          <mxGeometry x="240" y="582.5" width="330" height="30" as="geometry" />
        </mxCell>
        <mxCell id="xMeIBE9GRYdrcKsgBFlG-19" value="" style="shape=partialRectangle;whiteSpace=wrap;html=1;bottom=0;right=0;fillColor=none;" parent="ZuZG6qq2qMKesYJ0wgC9-1" vertex="1">
          <mxGeometry x="240" y="632.5" width="330" height="30" as="geometry" />
        </mxCell>
        <mxCell id="xMeIBE9GRYdrcKsgBFlG-20" value="" style="shape=partialRectangle;whiteSpace=wrap;html=1;top=0;left=0;fillColor=none;" parent="ZuZG6qq2qMKesYJ0wgC9-1" vertex="1">
          <mxGeometry x="240" y="632.5" width="330" height="30" as="geometry" />
        </mxCell>
        <mxCell id="A3OEPQnfXmp02z9Qw1QZ-1" value="Background image/color cover page" style="text;html=1;strokeColor=none;fillColor=none;align=center;verticalAlign=middle;whiteSpace=wrap;rounded=0;" parent="ZuZG6qq2qMKesYJ0wgC9-1" vertex="1">
          <mxGeometry x="170" y="200" width="80" height="50" as="geometry" />
        </mxCell>
        <mxCell id="aJ85iS1AqPdQVtB7vLz8-1" value="New&lt;br&gt;Existing&lt;br&gt;Unsubsscribe" style="strokeWidth=1;shadow=0;dashed=0;align=center;html=1;shape=mxgraph.mockup.text.callout;linkText=;textSize=17;textColor=#666666;callDir=NW;callStyle=line;fontSize=17;fontColor=#666666;align=left;verticalAlign=top;strokeColor=#666666;" parent="ZuZG6qq2qMKesYJ0wgC9-1" vertex="1">
          <mxGeometry x="30" y="505" width="200" height="100" as="geometry" />
        </mxCell>
        <mxCell id="aJ85iS1AqPdQVtB7vLz8-2" value="suscribe&amp;nbsp;&lt;br&gt;to emails,&lt;br&gt;promotions&lt;br&gt;click an option&lt;br&gt;Yes or No" style="strokeWidth=1;shadow=0;dashed=0;align=center;html=1;shape=mxgraph.mockup.text.callout;linkText=;textSize=17;textColor=#666666;callDir=NE;callStyle=line;fontSize=17;fontColor=#666666;align=right;verticalAlign=top;strokeColor=#666666;" parent="ZuZG6qq2qMKesYJ0wgC9-1" vertex="1">
          <mxGeometry x="570" y="535" width="180" height="120" as="geometry" />
        </mxCell>
        <mxCell id="JUM8o5w-Y_y0RFBF4EaK-1" value="&lt;font style=&quot;font-size: 18px;&quot;&gt;logo&lt;/font&gt;" style="text;html=1;strokeColor=none;fillColor=none;align=center;verticalAlign=middle;whiteSpace=wrap;rounded=0;" parent="ZuZG6qq2qMKesYJ0wgC9-1" vertex="1">
          <mxGeometry x="30" y="145" width="60" height="30" as="geometry" />
        </mxCell>
        <mxCell id="ZuZG6qq2qMKesYJ0wgC9-4" value="&lt;font style=&quot;font-size: 24px;&quot;&gt;&lt;b&gt;Contact Page&lt;/b&gt;&lt;/font&gt;" style="text;html=1;strokeColor=none;fillColor=none;align=center;verticalAlign=middle;whiteSpace=wrap;rounded=0;" parent="1" vertex="1">
          <mxGeometry x="330" y="40" width="162" height="30" as="geometry" />
        </mxCell>
      </root>
    </mxGraphModel>
  </diagram>
</mxfile>
